<svg width="12" height="9" viewBox="0 0 12 9" fill="none" xmlns="http://www.w3.org/2000/svg">
<path d="M4.2 6L2.4192 7.7808C2.221 7.97895 1.9685 8.11389 1.69362 8.16856C1.41874 8.22322 1.13382 8.19516 0.874891 8.08791C0.615959 7.98067 0.394639 7.79905 0.238912 7.56604C0.0831855 7.33302 4.41853e-05 7.05906 0 6.7788V6L0.8142 1.9296C0.922946 1.38553 1.21684 0.89595 1.64587 0.544148C2.0749 0.192346 2.61257 5.76447e-05 3.1674 0L4.2 0.9H7.5L8.8326 0C9.38743 5.76447e-05 9.9251 0.192346 10.3541 0.544148C10.7832 0.89595 11.0771 1.38553 11.1858 1.9296L12 6V6.7782C12 7.05846 11.9168 7.33242 11.7611 7.56544C11.6054 7.79845 11.384 7.98006 11.1251 8.08731C10.8662 8.19456 10.5813 8.22262 10.3064 8.16796C10.0315 8.11329 9.779 7.97835 9.5808 7.7802L7.8 6H4.2Z" fill="#A19DAA"/>
</svg>
